# xmcd
#
# Track frame offsets: 
#        150
#        15560
#        41772
#        55289
#        75337
#        88188
#        115069
#        129459
#        147328
#        162236
#        177703
#
# Disc length: 2541 seconds
#
# Revision: 2
# Processed by: cddbd v1.5.2PL0 Copyright (c) Steve Scherf et al.
# Submitted via: ExactAudioCopyFreeDBPlugin 1.0
#
DISCID=9009eb0b
DTITLE=Magnus Carlson - Magnus Carlson and The Moon Ray Quintet
DYEAR=2009
DGENRE=Soul
TTITLE0=If You Live
TTITLE1=Sugar Man
TTITLE2=Comin' Home Baby
TTITLE3=Willow Weep for Me
TTITLE4=Sea Lion Woman
TTITLE5=Riders on the Storm
TTITLE6=My Baby Girl
TTITLE7=Sally Go 'Round the Roses
TTITLE8=You Do Something to Me
TTITLE9=Time of the Season
TTITLE10=Deep in a Dream
EXTD=
EXTT0=
EXTT1=
EXTT2=
EXTT3=
EXTT4=
EXTT5=
EXTT6=
EXTT7=
EXTT8=
EXTT9=
EXTT10=
PLAYORDER=
